<svg viewBox="0 0 90.29 148.12" xmlns="http://www.w3.org/2000/svg"><path d="m72.47 135.72h-51.69a3.74 3.74 0 0 1 -3.73-3.52l-5.8-102.56h70.75l-5.81 102.56a3.72 3.72 0 0 1 -3.72 3.52z" fill="#fff"/><g fill="#dbcec8"><path d="m80.49 26.65-5.8 102.55a3.72 3.72 0 0 1 -3.69 3.52h-27.77c23.77-38.87 23.24-98.35 2.25-106.07z"/><circle cx="59.99" cy="59.74" r="6.65"/><circle cx="48.14" cy="54.18" r="2.97"/></g><path d="m76.84 99.48h-61.1l-1.57-27.48h64.23z" fill="#637582"/><path d="m22.68 100.23h-5.85l-2.15-27.49h5.84z" fill="#81919b"/><path d="m77.68 72.5-1.56 27.5h-19.48a135.48 135.48 0 0 0 4.12-27.5z" fill="#455760"/><path d="m14 72.49h66.47" fill="none" stroke="#3e3127" stroke-miterlimit="10" stroke-width="3"/><path d="m14 99.98h63.9" fill="none" stroke="#3e3127" stroke-miterlimit="10" stroke-width="3"/><path d="m72.22 133h-51.69a3.74 3.74 0 0 1 -3.73-3.52l-5.8-102.59h70.75l-5.81 102.56a3.72 3.72 0 0 1 -3.72 3.55z" fill="none" stroke="#3e3127" stroke-miterlimit="10" stroke-width="5"/><path d="m18.49 16.45 1.8-9.3a5.73 5.73 0 0 1 6-4.64l42.8 2.61a5.74 5.74 0 0 1 5.38 5.73v6.6" fill="#455760"/><path d="m18.74 16.45 1.8-9.3a5.73 5.73 0 0 1 6-4.64l42.8 2.61a5.74 5.74 0 0 1 5.38 5.73v6.6" fill="none" stroke="#3e3127" stroke-miterlimit="10" stroke-width="5"/><path d="m86.21 28.69h-80.83a1 1 0 0 1 -1-1v-1.56a12.75 12.75 0 0 1 12.74-12.75h57.35a12.75 12.75 0 0 1 12.75 12.75v1.56a1 1 0 0 1 -1.01 1z" fill="#637582"/><path d="m84.65 21.28a12.58 12.58 0 0 0 -6.84-2h-57.36a12.76 12.76 0 0 0 -12.67 11.45h-2.94a1 1 0 0 1 -1-1v-1.57a12.74 12.74 0 0 1 12.75-12.74h57.35a12.71 12.71 0 0 1 10.71 5.86z" fill="#81919b"/><path d="m86.79 29.27h-80.79a1 1 0 0 1 -1-1v-1.57a12.75 12.75 0 0 1 12.7-12.7h57.35a12.74 12.74 0 0 1 12.74 12.7v1.57a1 1 0 0 1 -1 1z" fill="none" stroke="#3e3127" stroke-miterlimit="10" stroke-width="5"/><circle cx="17.56" cy="21.19" fill="#81919b" r="2.56"/><circle cx="22.9" cy="23.16" fill="#81919b" r="1.53"/><path d="m52.07 91.91c-2.27 1.61-5.94 1.5-9.11-.49-3.91-2.46-5.58-6.86-3.71-9.82a1.43 1.43 0 0 1 .16-.24 6.4 6.4 0 0 0 .77 1.52 7.59 7.59 0 0 0 5.58 3.32 10.81 10.81 0 0 1 2.18.35 5.67 5.67 0 0 1 2.8 2.77c.49.88.9 1.78 1.33 2.59z" fill="#919fa8"/><path d="m53.92 89.87a2.92 2.92 0 0 1 -.29.4 24.64 24.64 0 0 0 -1-2.32 9.32 9.32 0 0 0 -1.32-2.07 5.5 5.5 0 0 0 -2.31-1.62 10.77 10.77 0 0 0 -2.58-.41 6.88 6.88 0 0 1 -2-.41 7.39 7.39 0 0 1 -2.81-1.94 9.55 9.55 0 0 1 -1.04-1.5c2.2-2 6.21-2.1 9.64.06 3.91 2.44 5.57 6.84 3.71 9.81z" fill="#919fa8"/><rect fill="#b7dbeb" height="13.79" rx="5.37" width="84.97" x="2" y="130.33"/><path d="m86.22 138.48a6.63 6.63 0 0 0 -2.53-.49h-71.17a6.9 6.9 0 0 0 -4.88 2 6.83 6.83 0 0 0 -2 4.87 6.68 6.68 0 0 0 .49 2.54 6.89 6.89 0 0 1 2.53-13.3h71.16a6.88 6.88 0 0 1 6.4 4.38z" fill="#eff7f9"/><rect fill="none" height="13.79" rx="6.9" stroke="#3e3127" stroke-miterlimit="10" stroke-width="5" width="84.97" x="2.5" y="131.83"/></svg>